<?xml version="1.0"?><svg viewBox="0 0 512.01 512.01" xmlns="http://www.w3.org/2000/svg" xmlns:xlink="http://www.w3.org/1999/xlink"><style>:root>svg{display:none}:root>svg:target{display:block}</style><svg viewBox="0 0 329.269 329" id="close" xmlns="http://www.w3.org/2000/svg"><path d="M194.8 164.77L323.013 36.555c8.343-8.34 8.343-21.825 0-30.164-8.34-8.34-21.825-8.34-30.164 0L164.633 134.605 36.422 6.391c-8.344-8.34-21.824-8.34-30.164 0-8.344 8.34-8.344 21.824 0 30.164l128.21 128.215L6.259 292.984c-8.344 8.34-8.344 21.825 0 30.164a21.266 21.266 0 0015.082 6.25c5.46 0 10.922-2.09 15.082-6.25l128.21-128.214 128.216 128.214a21.273 21.273 0 0015.082 6.25c5.46 0 10.922-2.09 15.082-6.25 8.343-8.34 8.343-21.824 0-30.164zm0 0" fill="#868f93" data-original="#000000"/></svg><svg viewBox="0 0 213.333 213.333" id="down-arrow" xmlns="http://www.w3.org/2000/svg"><path fill="#e1e1e1" data-original="#000000" d="M0 53.333L106.667 160 213.333 53.333z"/></svg><svg viewBox="0 -28 512.001 512" id="heart" xmlns="http://www.w3.org/2000/svg"><path d="M256 455.516c-7.29 0-14.316-2.641-19.793-7.438-20.684-18.086-40.625-35.082-58.219-50.074l-.09-.078c-51.582-43.957-96.125-81.918-127.117-119.313C16.137 236.81 0 197.172 0 153.871c0-42.07 14.426-80.883 40.617-109.293C67.121 15.832 103.488 0 143.031 0c29.555 0 56.621 9.344 80.446 27.77C235.5 37.07 246.398 48.453 256 61.73c9.605-13.277 20.5-24.66 32.527-33.96C312.352 9.344 339.418 0 368.973 0c39.539 0 75.91 15.832 102.414 44.578C497.578 72.988 512 111.801 512 153.871c0 43.3-16.133 82.938-50.777 124.738-30.993 37.399-75.532 75.356-127.106 119.309-17.625 15.016-37.597 32.039-58.328 50.168a30.046 30.046 0 01-19.789 7.43zM143.031 29.992c-31.066 0-59.605 12.399-80.367 34.914-21.07 22.856-32.676 54.45-32.676 88.965 0 36.418 13.535 68.988 43.883 105.606 29.332 35.394 72.961 72.574 123.477 115.625l.093.078c17.66 15.05 37.68 32.113 58.516 50.332 20.961-18.254 41.012-35.344 58.707-50.418 50.512-43.051 94.137-80.223 123.469-115.617 30.344-36.618 43.879-69.188 43.879-105.606 0-34.516-11.606-66.11-32.676-88.965-20.758-22.515-49.3-34.914-80.363-34.914-22.758 0-43.653 7.235-62.102 21.5-16.441 12.719-27.894 28.797-34.61 40.047-3.452 5.785-9.53 9.238-16.261 9.238s-12.809-3.453-16.262-9.238c-6.71-11.25-18.164-27.328-34.61-40.047-18.448-14.265-39.343-21.5-62.097-21.5zm0 0"/></svg><svg viewBox="0 0 512.001 512" id="heart_white" xmlns="http://www.w3.org/2000/svg"><path d="M256 455.516c-7.29 0-14.316-2.641-19.793-7.438-20.684-18.086-40.625-35.082-58.219-50.074l-.09-.078c-51.582-43.957-96.125-81.918-127.117-119.313C16.137 236.81 0 197.172 0 153.871c0-42.07 14.426-80.883 40.617-109.293C67.121 15.832 103.488 0 143.031 0c29.555 0 56.621 9.344 80.446 27.77C235.5 37.07 246.398 48.453 256 61.73c9.605-13.277 20.5-24.66 32.527-33.96C312.352 9.344 339.418 0 368.973 0c39.539 0 75.91 15.832 102.414 44.578C497.578 72.988 512 111.801 512 153.871c0 43.3-16.133 82.938-50.777 124.738-30.993 37.399-75.532 75.356-127.106 119.309-17.625 15.016-37.597 32.039-58.328 50.168a30.046 30.046 0 01-19.789 7.43zM143.031 29.992c-31.066 0-59.605 12.399-80.367 34.914-21.07 22.856-32.676 54.45-32.676 88.965 0 36.418 13.535 68.988 43.883 105.606 29.332 35.394 72.961 72.574 123.477 115.625l.093.078c17.66 15.05 37.68 32.113 58.516 50.332 20.961-18.254 41.012-35.344 58.707-50.418 50.512-43.051 94.137-80.223 123.469-115.617 30.344-36.618 43.879-69.188 43.879-105.606 0-34.516-11.606-66.11-32.676-88.965-20.758-22.515-49.3-34.914-80.363-34.914-22.758 0-43.653 7.235-62.102 21.5-16.441 12.719-27.894 28.797-34.61 40.047-3.452 5.785-9.53 9.238-16.261 9.238s-12.809-3.453-16.262-9.238c-6.71-11.25-18.164-27.328-34.61-40.047-18.448-14.265-39.343-21.5-62.097-21.5zm0 0" fill="#fff" data-original="#000000"/></svg><svg viewBox="0 0 512.005 512.005" id="loupe" xmlns="http://www.w3.org/2000/svg"><path d="M505.749 475.587l-145.6-145.6c28.203-34.837 45.184-79.104 45.184-127.317C405.333 90.926 314.41.003 202.666.003S0 90.925 0 202.669s90.923 202.667 202.667 202.667c48.213 0 92.48-16.981 127.317-45.184l145.6 145.6c4.16 4.16 9.621 6.251 15.083 6.251s10.923-2.091 15.083-6.251c8.341-8.341 8.341-21.824-.001-30.165zM202.667 362.669c-88.235 0-160-71.765-160-160s71.765-160 160-160 160 71.765 160 160-71.766 160-160 160z"/></svg><svg viewBox="0 0 384 384" id="menu" xmlns="http://www.w3.org/2000/svg"><path d="M0 277.333h384V320H0zM0 170.667h384v42.667H0zM0 64h384v42.667H0z"/></svg><svg viewBox="0 0 24 24" id="star" xmlns="http://www.w3.org/2000/svg"><path d="M23.363 8.584l-7.378-1.127L12.678.413c-.247-.526-1.11-.526-1.357 0L8.015 7.457.637 8.584a.75.75 0 00-.423 1.265l5.36 5.494-1.267 7.767a.75.75 0 001.103.777L12 20.245l6.59 3.643a.75.75 0 001.103-.777l-1.267-7.767 5.36-5.494a.75.75 0 00-.423-1.266z" fill="#ded3aa" data-original="#ffc107"/></svg><svg viewBox="0 0 24 24" id="star_grey" xmlns="http://www.w3.org/2000/svg"><path d="M23.363 8.584l-7.378-1.127L12.678.413c-.247-.526-1.11-.526-1.357 0L8.015 7.457.637 8.584a.75.75 0 00-.423 1.265l5.36 5.494-1.267 7.767a.75.75 0 001.103.777L12 20.245l6.59 3.643a.75.75 0 001.103-.777l-1.267-7.767 5.36-5.494a.75.75 0 00-.423-1.266z" fill="#dfdfde" data-original="#ffc107"/></svg><svg viewBox="0 0 512 512" id="united-states" xmlns="http://www.w3.org/2000/svg"><path d="M495.484 90.839H264.258L9 267.5v146.833h486.484L512 404.645v-30.673l-10.75-10.222v-29l10.75-7.967v-47.189l-9.667-9.261v-29.667l9.667-8.262v-47.188l-9.667-8.549v-26L512 138.028v-30.673c0-9.122-7.395-16.516-16.516-16.516z" fill="#e5646e"/><path d="M256.333 138.028H512v47.189H256.333zM256 232.405l8.258 47.189H512v-47.189z" fill="#f2f2f6"/><path d="M16.516 355.097V271L0 279.594v47.189l7 5.967v31l-7 10.222v30.673c0 9.122 7.395 16.516 16.516 16.516h478.968c9.121 0 16.516-7.395 16.516-16.516H66.065c-27.365 0-49.549-22.183-49.549-49.548z" fill="#db4655"/><path d="M264.258 90.839H16.516L6 107.355l10.516 172.239h247.742z" fill="#5055a0"/><path d="M16.516 90.839C7.395 90.839 0 98.233 0 107.355v172.239h16.516z" fill="#3f3f8f"/><path d="M33.113 127.657c-4.565 0-8.298-3.698-8.298-8.258s3.653-8.258 8.218-8.258h.081c4.565 0 8.258 3.698 8.258 8.258s-3.695 8.258-8.259 8.258zM33.113 193.722c-4.565 0-8.298-3.698-8.298-8.258s3.653-8.258 8.218-8.258h.081c4.565 0 8.258 3.698 8.258 8.258s-3.695 8.258-8.259 8.258zM33.113 259.786c-4.565 0-8.298-3.698-8.298-8.258s3.653-8.258 8.218-8.258h.081c4.565 0 8.258 3.698 8.258 8.258s-3.695 8.258-8.259 8.258z" fill="#fff"/><path d="M33.113 160.69c-4.565 0-8.298-3.698-8.298-8.258s3.653-8.258 8.218-8.258h.081a8.256 8.256 0 018.258 8.258 8.258 8.258 0 01-8.259 8.258zM33.113 226.754c-4.565 0-8.298-3.698-8.298-8.258s3.653-8.258 8.218-8.258h.081c4.565 0 8.258 3.698 8.258 8.258s-3.695 8.258-8.259 8.258z" fill="#f2f2f6"/><path d="M231.306 127.657c-4.565 0-8.298-3.698-8.298-8.258s3.653-8.258 8.218-8.258h.081c4.565 0 8.258 3.698 8.258 8.258s-3.694 8.258-8.259 8.258zM231.306 193.722c-4.565 0-8.298-3.698-8.298-8.258s3.653-8.258 8.218-8.258h.081c4.565 0 8.258 3.698 8.258 8.258s-3.694 8.258-8.259 8.258zM231.306 259.786c-4.565 0-8.298-3.698-8.298-8.258s3.653-8.258 8.218-8.258h.081c4.565 0 8.258 3.698 8.258 8.258s-3.694 8.258-8.259 8.258z" fill="#fff"/><g fill="#f2f2f6"><path d="M231.306 160.69c-4.565 0-8.298-3.698-8.298-8.258s3.653-8.258 8.218-8.258h.081c4.565 0 8.258 3.698 8.258 8.258s-3.694 8.258-8.259 8.258zM231.306 226.754c-4.565 0-8.298-3.698-8.298-8.258s3.653-8.258 8.218-8.258h.081c4.565 0 8.258 3.698 8.258 8.258s-3.694 8.258-8.259 8.258zM82.661 127.657c-4.565 0-8.298-3.698-8.298-8.258s3.653-8.258 8.218-8.258h.081c4.565 0 8.258 3.698 8.258 8.258s-3.694 8.258-8.259 8.258zM82.661 193.722c-4.565 0-8.298-3.698-8.298-8.258s3.653-8.258 8.218-8.258h.081c4.565 0 8.258 3.698 8.258 8.258s-3.694 8.258-8.259 8.258zM82.661 259.786c-4.565 0-8.298-3.698-8.298-8.258s3.653-8.258 8.218-8.258h.081c4.565 0 8.258 3.698 8.258 8.258s-3.694 8.258-8.259 8.258z"/></g><path d="M82.661 160.69c-4.565 0-8.298-3.698-8.298-8.258s3.653-8.258 8.218-8.258h.081a8.256 8.256 0 018.258 8.258 8.257 8.257 0 01-8.259 8.258zM82.661 226.754c-4.565 0-8.298-3.698-8.298-8.258s3.653-8.258 8.218-8.258h.081c4.565 0 8.258 3.698 8.258 8.258s-3.694 8.258-8.259 8.258zM57.887 144.173c-4.565 0-8.298-3.698-8.298-8.258s3.653-8.258 8.218-8.258h.081a8.256 8.256 0 018.258 8.258 8.257 8.257 0 01-8.259 8.258zM57.887 210.238c-4.565 0-8.298-3.698-8.298-8.258s3.653-8.258 8.218-8.258h.081c4.565 0 8.258 3.698 8.258 8.258s-3.694 8.258-8.259 8.258z" fill="#fff"/><path d="M57.887 177.206c-4.565 0-8.298-3.698-8.298-8.258s3.653-8.258 8.218-8.258h.081c4.565 0 8.258 3.698 8.258 8.258s-3.694 8.258-8.259 8.258zM57.887 243.27c-4.565 0-8.298-3.698-8.298-8.258s3.653-8.258 8.218-8.258h.081c4.565 0 8.258 3.698 8.258 8.258s-3.694 8.258-8.259 8.258z" fill="#f2f2f6"/><path d="M132.21 127.657c-4.565 0-8.298-3.698-8.298-8.258s3.653-8.258 8.218-8.258h.081c4.565 0 8.258 3.698 8.258 8.258s-3.695 8.258-8.259 8.258zM132.21 193.722c-4.565 0-8.298-3.698-8.298-8.258s3.653-8.258 8.218-8.258h.081c4.565 0 8.258 3.698 8.258 8.258s-3.695 8.258-8.259 8.258zM132.21 259.786c-4.565 0-8.298-3.698-8.298-8.258s3.653-8.258 8.218-8.258h.081c4.565 0 8.258 3.698 8.258 8.258s-3.695 8.258-8.259 8.258z" fill="#fff"/><path d="M132.21 160.69c-4.565 0-8.298-3.698-8.298-8.258s3.653-8.258 8.218-8.258h.081a8.256 8.256 0 018.258 8.258 8.258 8.258 0 01-8.259 8.258zM132.21 226.754c-4.565 0-8.298-3.698-8.298-8.258s3.653-8.258 8.218-8.258h.081c4.565 0 8.258 3.698 8.258 8.258s-3.695 8.258-8.259 8.258zM107.435 144.173c-4.565 0-8.298-3.698-8.298-8.258s3.653-8.258 8.218-8.258h.081a8.256 8.256 0 018.258 8.258 8.256 8.256 0 01-8.259 8.258zM107.435 210.238c-4.565 0-8.298-3.698-8.298-8.258s3.653-8.258 8.218-8.258h.081c4.565 0 8.258 3.698 8.258 8.258s-3.694 8.258-8.259 8.258z" fill="#f2f2f6"/><path d="M107.435 177.206c-4.565 0-8.298-3.698-8.298-8.258s3.653-8.258 8.218-8.258h.081c4.565 0 8.258 3.698 8.258 8.258s-3.694 8.258-8.259 8.258zM107.435 243.27c-4.565 0-8.298-3.698-8.298-8.258s3.653-8.258 8.218-8.258h.081c4.565 0 8.258 3.698 8.258 8.258s-3.694 8.258-8.259 8.258z" fill="#fff"/><path d="M181.677 127.657c-4.565 0-8.298-3.698-8.298-8.258s3.653-8.258 8.218-8.258h.081c4.565 0 8.258 3.698 8.258 8.258s-3.694 8.258-8.259 8.258zM181.677 193.722c-4.565 0-8.298-3.698-8.298-8.258s3.653-8.258 8.218-8.258h.081c4.565 0 8.258 3.698 8.258 8.258s-3.694 8.258-8.259 8.258zM181.677 259.786c-4.565 0-8.298-3.698-8.298-8.258s3.653-8.258 8.218-8.258h.081c4.565 0 8.258 3.698 8.258 8.258s-3.694 8.258-8.259 8.258z" fill="#f2f2f6"/><path d="M181.677 160.69c-4.565 0-8.298-3.698-8.298-8.258s3.653-8.258 8.218-8.258h.081a8.256 8.256 0 018.258 8.258 8.257 8.257 0 01-8.259 8.258zM181.677 226.754c-4.565 0-8.298-3.698-8.298-8.258s3.653-8.258 8.218-8.258h.081c4.565 0 8.258 3.698 8.258 8.258s-3.694 8.258-8.259 8.258zM156.903 144.173c-4.565 0-8.298-3.698-8.298-8.258s3.653-8.258 8.218-8.258h.081a8.256 8.256 0 018.258 8.258 8.257 8.257 0 01-8.259 8.258zM156.903 210.238c-4.565 0-8.298-3.698-8.298-8.258s3.653-8.258 8.218-8.258h.081c4.565 0 8.258 3.698 8.258 8.258s-3.694 8.258-8.259 8.258z" fill="#fff"/><path d="M156.903 177.206c-4.565 0-8.298-3.698-8.298-8.258s3.653-8.258 8.218-8.258h.081c4.565 0 8.258 3.698 8.258 8.258s-3.694 8.258-8.259 8.258zM156.903 243.27c-4.565 0-8.298-3.698-8.298-8.258s3.653-8.258 8.218-8.258h.081c4.565 0 8.258 3.698 8.258 8.258s-3.694 8.258-8.259 8.258zM206.532 144.173c-4.565 0-8.298-3.698-8.298-8.258s3.653-8.258 8.218-8.258h.081a8.256 8.256 0 018.258 8.258 8.257 8.257 0 01-8.259 8.258zM206.532 210.238c-4.565 0-8.298-3.698-8.298-8.258s3.653-8.258 8.218-8.258h.081c4.565 0 8.258 3.698 8.258 8.258s-3.694 8.258-8.259 8.258z" fill="#f2f2f6"/><path d="M206.532 177.206c-4.565 0-8.298-3.698-8.298-8.258s3.653-8.258 8.218-8.258h.081c4.565 0 8.258 3.698 8.258 8.258s-3.694 8.258-8.259 8.258zM206.532 243.27c-4.565 0-8.298-3.698-8.298-8.258s3.653-8.258 8.218-8.258h.081c4.565 0 8.258 3.698 8.258 8.258s-3.694 8.258-8.259 8.258z" fill="#fff"/><path d="M3 360.333l17.26 13.639H512v-47.189H16.516z" fill="#f2f2f6"/><path d="M0 326.783v47.189h20.26a49.372 49.372 0 01-3.743-18.876v-28.314H0z" fill="#e1e1e6"/></svg></svg>